<svg width="62" height="21" viewBox="0 0 62 21" fill="none" xmlns="http://www.w3.org/2000/svg">
<path d="M6.21356 20.216C5.02956 20.216 3.96956 19.988 3.03356 19.532C2.10556 19.068 1.36956 18.348 0.825562 17.372C0.281562 16.396 0.00956219 15.176 0.00956219 13.712C0.00956219 12.216 0.317562 10.94 0.933562 9.884C1.54956 8.82 2.43756 8.012 3.59756 7.46C4.75756 6.908 6.14556 6.632 7.76156 6.632C8.49756 6.632 9.28156 6.684 10.1136 6.788V0.607999H14.2656V20H10.7976L10.5816 18.632H10.3776C9.86556 19.128 9.25356 19.516 8.54156 19.796C7.83756 20.076 7.06156 20.216 6.21356 20.216ZM7.32956 16.916C7.86556 16.916 8.37356 16.832 8.85356 16.664C9.34156 16.496 9.76156 16.232 10.1136 15.872V9.956C9.47356 9.82 8.78156 9.752 8.03756 9.752C6.70956 9.752 5.72556 10.056 5.08556 10.664C4.44556 11.272 4.12556 12.196 4.12556 13.436C4.12556 15.756 5.19356 16.916 7.32956 16.916ZM24.2629 20.252C22.7909 20.252 21.5029 19.988 20.3989 19.46C19.3029 18.932 18.4549 18.156 17.8549 17.132C17.2549 16.108 16.9549 14.876 16.9549 13.436C16.9549 11.988 17.2429 10.76 17.8189 9.752C18.4029 8.736 19.2389 7.968 20.3269 7.448C21.4229 6.928 22.7349 6.668 24.2629 6.668C25.7989 6.668 27.1109 6.928 28.1989 7.448C29.2949 7.96 30.1309 8.724 30.7069 9.74C31.2829 10.748 31.5709 11.98 31.5709 13.436C31.5709 14.868 31.2669 16.096 30.6589 17.12C30.0589 18.144 29.2109 18.924 28.1149 19.46C27.0189 19.988 25.7349 20.252 24.2629 20.252ZM24.2629 17.084C26.3909 17.084 27.4549 15.872 27.4549 13.448C27.4549 12.192 27.1829 11.276 26.6389 10.7C26.0949 10.124 25.3029 9.836 24.2629 9.836C23.2229 9.836 22.4309 10.124 21.8869 10.7C21.3429 11.276 21.0709 12.184 21.0709 13.424C21.0709 15.864 22.1349 17.084 24.2629 17.084ZM34.1503 20V0.607999H38.3023V20H34.1503ZM41.6738 20V0.607999H45.8258V20H41.6738ZM54.4172 6.668C56.0412 6.668 57.3452 6.852 58.3292 7.22C59.3212 7.588 60.0532 8.196 60.5252 9.044C61.0052 9.892 61.2452 11.052 61.2452 12.524V20H57.8012L57.5252 18.764H57.3212C56.8572 19.244 56.2772 19.612 55.5812 19.868C54.8932 20.116 54.1452 20.24 53.3372 20.24C52.2972 20.24 51.4132 20.08 50.6852 19.76C49.9572 19.432 49.4092 18.98 49.0412 18.404C48.6732 17.828 48.4892 17.164 48.4892 16.412C48.4892 15.172 48.9772 14.212 49.9532 13.532C50.9292 12.852 52.4612 12.444 54.5492 12.308L57.1772 12.104C57.1612 11.48 57.0372 10.992 56.8052 10.64C56.5732 10.288 56.2092 10.036 55.7132 9.884C55.2252 9.732 54.5572 9.656 53.7092 9.656C53.1092 9.656 52.4452 9.708 51.7172 9.812C50.9892 9.908 50.3052 10.052 49.6652 10.244V7.292C50.3772 7.084 51.1532 6.928 51.9932 6.824C52.8412 6.72 53.6492 6.668 54.4172 6.668ZM54.6212 17.528C55.0772 17.528 55.5252 17.46 55.9652 17.324C56.4132 17.18 56.8172 16.968 57.1772 16.688V14.324L54.9212 14.504C54.0892 14.576 53.4932 14.74 53.1332 14.996C52.7812 15.252 52.6052 15.612 52.6052 16.076C52.6052 16.532 52.7732 16.888 53.1092 17.144C53.4452 17.4 53.9492 17.528 54.6212 17.528Z" fill="white"/>
</svg>
